<svg xmlns="http://www.w3.org/2000/svg" xmlns:xlink="http://www.w3.org/1999/xlink" version="1.1" width="924" height="450">
<a xlink:href="https://blog.csdn.net/boysoft2002" target="_blank">
	<text x="5" y="20" fill="blue">Hann's CSDN Homepage</text></a>
	<g id="0,0,0">
	<circle cx="458" cy="60" r="25" stroke="black" stroke-width="2" style="fill:lightgreen;stroke:black;opacity:0.5"/>
	<text x="458" y="60" fill="black" font-size="25" text-anchor="middle" dominant-baseline="middle">5</text>
	<line x1="440" y1="78" x2="234" y2="125" style="stroke:black;stroke-width:2;opacity:0.7" />
	<line x1="476" y1="78" x2="682" y2="125" style="stroke:black;stroke-width:2;opacity:0.7" />
	</g>
	<g id="0,-8,1">
	<circle cx="234" cy="150" r="25" stroke="black" stroke-width="2" style="fill:lightgreen;stroke:black;opacity:0.5"/>
	<text x="234" y="150" fill="black" font-size="25" text-anchor="middle" dominant-baseline="middle">1</text>
	<line x1="216" y1="168" x2="122" y2="215" style="stroke:black;stroke-width:2;opacity:0.7" />
	<line x1="252" y1="168" x2="346" y2="215" style="stroke:black;stroke-width:2;opacity:0.7" />
	</g>
	<g id="0,-12,2">
	<circle cx="122" cy="240" r="25" stroke="black" stroke-width="2" style="fill:lightgreen;stroke:black;opacity:0.5"/>
	<text x="122" y="240" fill="black" font-size="25" text-anchor="middle" dominant-baseline="middle">0</text>
	<LEAF/>
	</g>
	<g id="0,-4,2">
	<circle cx="346" cy="240" r="25" stroke="black" stroke-width="2" style="fill:lightgreen;stroke:black;opacity:0.5"/>
	<text x="346" y="240" fill="black" font-size="25" text-anchor="middle" dominant-baseline="middle">3</text>
	<line x1="328" y1="258" x2="290" y2="305" style="stroke:black;stroke-width:2;opacity:0.7" />
	</g>
	<g id="0,-6,3">
	<circle cx="290" cy="330" r="25" stroke="black" stroke-width="2" style="fill:lightgreen;stroke:black;opacity:0.5"/>
	<text x="290" y="330" fill="black" font-size="25" text-anchor="middle" dominant-baseline="middle">2</text>
	<LEAF/>
	</g>
	<g id="0,8,1">
	<circle cx="682" cy="150" r="25" stroke="black" stroke-width="2" style="fill:lightgreen;stroke:black;opacity:0.5"/>
	<text x="682" y="150" fill="black" font-size="25" text-anchor="middle" dominant-baseline="middle">19</text>
	<line x1="664" y1="168" x2="570" y2="215" style="stroke:black;stroke-width:2;opacity:0.7" />
	<line x1="700" y1="168" x2="794" y2="215" style="stroke:black;stroke-width:2;opacity:0.7" />
	</g>
	<g id="0,4,2">
	<circle cx="570" cy="240" r="25" stroke="black" stroke-width="2" style="fill:lightgreen;stroke:black;opacity:0.5"/>
	<text x="570" y="240" fill="black" font-size="25" text-anchor="middle" dominant-baseline="middle">10</text>
	<line x1="552" y1="258" x2="514" y2="305" style="stroke:black;stroke-width:2;opacity:0.7" />
	<line x1="588" y1="258" x2="626" y2="305" style="stroke:black;stroke-width:2;opacity:0.7" />
	</g>
	<g id="0,2,3">
	<circle cx="514" cy="330" r="25" stroke="black" stroke-width="2" style="fill:lightgreen;stroke:black;opacity:0.5"/>
	<text x="514" y="330" fill="black" font-size="25" text-anchor="middle" dominant-baseline="middle">8</text>
	<line x1="496" y1="348" x2="486" y2="395" style="stroke:black;stroke-width:2;opacity:0.7" />
	<line x1="532" y1="348" x2="542" y2="395" style="stroke:black;stroke-width:2;opacity:0.7" />
	</g>
	<g id="0,1,4">
	<circle cx="486" cy="420" r="25" stroke="black" stroke-width="2" style="fill:lightgreen;stroke:black;opacity:0.5"/>
	<text x="486" y="420" fill="black" font-size="25" text-anchor="middle" dominant-baseline="middle">7</text>
	<LEAF/>
	</g>
	<g id="0,3,4">
	<circle cx="542" cy="420" r="25" stroke="black" stroke-width="2" style="fill:lightgreen;stroke:black;opacity:0.5"/>
	<text x="542" y="420" fill="black" font-size="25" text-anchor="middle" dominant-baseline="middle">9</text>
	<LEAF/>
	</g>
	<g id="0,6,3">
	<circle cx="626" cy="330" r="25" stroke="black" stroke-width="2" style="fill:lightgreen;stroke:black;opacity:0.5"/>
	<text x="626" y="330" fill="black" font-size="25" text-anchor="middle" dominant-baseline="middle">12</text>
	<line x1="608" y1="348" x2="598" y2="395" style="stroke:black;stroke-width:2;opacity:0.7" />
	<line x1="644" y1="348" x2="654" y2="395" style="stroke:black;stroke-width:2;opacity:0.7" />
	</g>
	<g id="0,5,4">
	<circle cx="598" cy="420" r="25" stroke="black" stroke-width="2" style="fill:lightgreen;stroke:black;opacity:0.5"/>
	<text x="598" y="420" fill="black" font-size="25" text-anchor="middle" dominant-baseline="middle">11</text>
	<LEAF/>
	</g>
	<g id="0,7,4">
	<circle cx="654" cy="420" r="25" stroke="black" stroke-width="2" style="fill:lightgreen;stroke:black;opacity:0.5"/>
	<text x="654" y="420" fill="black" font-size="25" text-anchor="middle" dominant-baseline="middle">13</text>
	<LEAF/>
	</g>
	<g id="0,12,2">
	<circle cx="794" cy="240" r="25" stroke="black" stroke-width="2" style="fill:lightgreen;stroke:black;opacity:0.5"/>
	<text x="794" y="240" fill="black" font-size="25" text-anchor="middle" dominant-baseline="middle">39</text>
	<line x1="776" y1="258" x2="738" y2="305" style="stroke:black;stroke-width:2;opacity:0.7" />
	<line x1="812" y1="258" x2="850" y2="305" style="stroke:black;stroke-width:2;opacity:0.7" />
	</g>
	<g id="0,10,3">
	<circle cx="738" cy="330" r="25" stroke="black" stroke-width="2" style="fill:lightgreen;stroke:black;opacity:0.5"/>
	<text x="738" y="330" fill="black" font-size="25" text-anchor="middle" dominant-baseline="middle">38</text>
	<line x1="720" y1="348" x2="710" y2="395" style="stroke:black;stroke-width:2;opacity:0.7" />
	</g>
	<g id="0,9,4">
	<circle cx="710" cy="420" r="25" stroke="black" stroke-width="2" style="fill:lightgreen;stroke:black;opacity:0.5"/>
	<text x="710" y="420" fill="black" font-size="25" text-anchor="middle" dominant-baseline="middle">37</text>
	<LEAF/>
	</g>
	<g id="0,14,3">
	<circle cx="850" cy="330" r="25" stroke="black" stroke-width="2" style="fill:lightgreen;stroke:black;opacity:0.5"/>
	<text x="850" y="330" fill="black" font-size="25" text-anchor="middle" dominant-baseline="middle">40</text>
	<LEAF/>
	</g>
</svg>